# xmcd CD database file
# Copyright (C) 1993-1998 Ti Kan
#
# Track frame offsets:
#	150
#	12192
#	25224
#	38038
#	52043
#	63666
#	76457
#	90734
#	103578
#	116986
#	130191
#	144965
#	156898
#	169311
#	180894
#	193138
#	206816
#
# Disc length: 2945 seconds
#
# Revision: 1
# Processed by: cddbd v1.4b41PL1 Copyright (c) Steve Scherf et al.
# Submitted via: CDValet v3.31 - Copyright (c) 1997 Greg Leichner
#
DISCID=ec0b7f11
DTITLE=Various Artist - Full Spectrum Blues, Disk Four, Urban Blues
DYEAR=1900
DGENRE=
TTITLE0=Ain't You Comin' Out Blues
TTITLE1=Anna Lou Blues
TTITLE2=Ramblin' With That Woman
TTITLE3=Hot Stuff
TTITLE4=She Walks Like A Kangaroo
TTITLE5=Good Old Easy Street
TTITLE6=Me And My Gin
TTITLE7=W.P.A. Rag
TTITLE8=Why Don't You Do Right
TTITLE9=Cherry Red
TTITLE10=Freight Train Blues
TTITLE11=The Blues Ain't Nothing But...
TTITLE12=Killing Floor Blues
TTITLE13=Oh! Red
TTITLE14=New Early In The Morning
TTITLE15=Blues In The Dark
TTITLE16=Fine And Mellow
EXTD=
EXTT0=
EXTT1=
EXTT2=
EXTT3=
EXTT4=
EXTT5=
EXTT6=
EXTT7=
EXTT8=
EXTT9=
EXTT10=
EXTT11=
EXTT12=
EXTT13=
EXTT14=
EXTT15=
EXTT16=
PLAYORDER=
